<svg id="logo" xmlns="http://www.w3.org/2000/svg" width="107.535" height="59.894" viewBox="0 0 107.535 59.894">
  <path id="패스_1" data-name="패스 1" d="M35.911,159.834a.189.189,0,0,0-.129-.054h0a.18.18,0,0,0-.132.06.189.189,0,0,0-.057.136l.028,1.325a.315.315,0,0,1-.066.218.29.29,0,0,1-.214.073l-10.761.221,11.25-8.677h0V152.6l-12.616.255h0a.29.29,0,0,1-.205-.066.281.281,0,0,1-.073-.211l-.05-.978a.186.186,0,0,0-.06-.132.189.189,0,0,0-.129-.054h0a.173.173,0,0,0-.132.06.192.192,0,0,0-.054.136l.069,3.432a.2.2,0,0,0,.06.132.192.192,0,0,0,.132.054h0a.167.167,0,0,0,.186-.2l-.025-1.325a.249.249,0,0,1,.278-.29l10.219-.208-10.724,8.052h0l.05,2.425a.186.186,0,0,0,.06.132.192.192,0,0,0,.132.054h0a.168.168,0,0,0,.186-.2l-.019-.984a.249.249,0,0,1,.278-.29l11.966-.246h0a.249.249,0,0,1,.281.281l.019.984a.173.173,0,0,0,.189.189h0a.2.2,0,0,0,.132-.06.173.173,0,0,0,.054-.136l-.069-3.435a.18.18,0,0,0-.054-.142Z" transform="translate(-15.41 -103.993)" fill="#fff"/>
  <path id="패스_2" data-name="패스 2" d="M43.5,104.016a8.914,8.914,0,0,0-6.646-2.656,5.967,5.967,0,0,0-3.053,1.009,5.579,5.579,0,0,0-2.252,5.6,5.993,5.993,0,0,0,1.5,2.839,8.163,8.163,0,0,0,3.04,2.031,8.434,8.434,0,0,0,3.154.653h.442a6.011,6.011,0,0,0,3.056-1.016,5.586,5.586,0,0,0,2.252-5.6A5.936,5.936,0,0,0,43.5,104.016Zm.848,5.829a3.312,3.312,0,0,1-1.621,1.769,5.529,5.529,0,0,1-2.722.524,10.876,10.876,0,0,1-6.248-2.514,5.535,5.535,0,0,1-1.6-2.258,3.4,3.4,0,0,1,1.675-4.16,5.21,5.21,0,0,1,2.413-.53h.315a11.089,11.089,0,0,1,6.239,2.517,5.4,5.4,0,0,1,1.6,2.258A3.324,3.324,0,0,1,44.351,109.844Z" transform="translate(-21.532 -69.609)" fill="#fff"/>
  <path id="패스_3" data-name="패스 3" d="M60.739,50.411l.7-.7a.189.189,0,0,0,.054-.136.192.192,0,0,0-.315-.136l-2.425,2.432a.167.167,0,0,0-.054.136.18.18,0,0,0,.054.136.17.17,0,0,0,.268,0l.946-.946a.249.249,0,0,1,.4,0l7.22,7.22L54.336,56.274h0L52.624,57.99a.189.189,0,0,0-.054.136.192.192,0,0,0,.054.136.173.173,0,0,0,.271,0l.7-.7a.249.249,0,0,1,.4,0l8.472,8.459a.252.252,0,0,1,0,.4h0l-.7.7a.192.192,0,0,0-.066.136.2.2,0,0,0,.069.132.17.17,0,0,0,.132.054.177.177,0,0,0,.136-.054l2.425-2.429a.189.189,0,0,0,0-.271.18.18,0,0,0-.132-.054.189.189,0,0,0-.136.054l-.946.946a.252.252,0,0,1-.4,0l-7.617-7.607,14.054,2.094h0l.369-.366h0l-8.913-8.945a.252.252,0,0,1,0-.4Z" transform="translate(-36.1 -33.943)" fill="#fff"/>
  <path id="패스_4" data-name="패스 4" d="M112.762,26.538,111.3,24.176V24.16L102.4,27.781a.214.214,0,0,0-.1.1.18.18,0,0,0,0,.145.189.189,0,0,0,.1.114.2.2,0,0,0,.151,0l.915-.372a.249.249,0,0,1,.369.155l4.513,11.086a.249.249,0,0,1-.155.372l-.915.372a.2.2,0,0,0-.114.1.183.183,0,0,0,0,.151.173.173,0,0,0,.1.1.164.164,0,0,0,.076,0,.179.179,0,0,0,.069,0l4.125-1.678a.173.173,0,0,0,.1-.1.18.18,0,0,0,0-.145.186.186,0,0,0-.1-.1.18.18,0,0,0-.145,0L110,38.64a.29.29,0,0,1-.227,0,.287.287,0,0,1-.145-.17l-2.539-6.254,2.388-.975a2.252,2.252,0,0,1,.975-.2,1.262,1.262,0,0,1,.792.41,4.557,4.557,0,0,1,.782,1.227.316.316,0,0,0,.107.095.126.126,0,0,0,.123,0,.136.136,0,0,0,.079-.095.192.192,0,0,0,0-.139l-1.814-4.428a.218.218,0,0,0-.091-.107.151.151,0,0,0-.126,0,.167.167,0,0,0-.082.085.262.262,0,0,0,0,.142,4.576,4.576,0,0,1,.214,1.353,1.262,1.262,0,0,1-.284.795,2.148,2.148,0,0,1-.8.517l-2.391.975-1.927-4.731,3.649-1.486a3.548,3.548,0,0,1,1.312-.3h.025a2.258,2.258,0,0,1,1.158.36,7.087,7.087,0,0,1,1.3,1.1.211.211,0,0,0,.249.063.151.151,0,0,0,.1-.107.255.255,0,0,0-.022-.167Z" transform="translate(-70.222 -16.54)" fill="#fff"/>
  <path id="패스_5" data-name="패스 5" d="M154.807,32.512l-.981.1a.284.284,0,0,1-.221-.05.281.281,0,0,1-.091-.205L152.3,20.451a.249.249,0,0,1,.252-.315l.981-.1a.2.2,0,0,0,.129-.069.186.186,0,0,0,.041-.139.183.183,0,0,0-.069-.129.173.173,0,0,0-.139-.041l-3.924.4a.17.17,0,0,0-.126.069.177.177,0,0,0-.044.139.2.2,0,0,0,.063.139.18.18,0,0,0,.145.032l.981-.1a.281.281,0,0,1,.221.047.29.29,0,0,1,.091.205L152.11,32.5a.3.3,0,0,1-.047.221.29.29,0,0,1-.205.091l-.981.1a.167.167,0,0,0-.17.208.177.177,0,0,0,.069.129.186.186,0,0,0,.117.044h.022l3.924-.4a.17.17,0,0,0,.126-.069.177.177,0,0,0,.044-.139.183.183,0,0,0-.069-.126A.18.18,0,0,0,154.807,32.512Z" transform="translate(-102.555 -13.455)" fill="#fff"/>
  <path id="패스_6" data-name="패스 6" d="M191.1,22.714a.126.126,0,0,0-.139.073l-.457.886a6.683,6.683,0,0,0-1.577-1.312,6.487,6.487,0,0,0-2.085-.754,5.078,5.078,0,0,0-3.034.315,5.993,5.993,0,0,0-2.463,2.034,8.386,8.386,0,0,0-1.41,3.381,8.2,8.2,0,0,0,.054,3.656,5.958,5.958,0,0,0,1.577,2.807,5.334,5.334,0,0,0,2.794,1.422,6.049,6.049,0,0,0,1.148.114,5.189,5.189,0,0,0,1.536-.227,5.107,5.107,0,0,0,2.249-1.5.236.236,0,0,0,0-.271.17.17,0,0,0-.155-.057.35.35,0,0,0-.177.085,4.7,4.7,0,0,1-2.075,1.375,4.6,4.6,0,0,1-2.287.142,3.5,3.5,0,0,1-2.094-1.262,5.573,5.573,0,0,1-1.1-2.6,10.324,10.324,0,0,1,1.262-6.589,5.652,5.652,0,0,1,1.959-2.009,3.3,3.3,0,0,1,2.3-.416,3.58,3.58,0,0,1,2.463,1.561,6.652,6.652,0,0,1,.836,3.391.284.284,0,0,0,.05.167.2.2,0,0,0,.126.091.155.155,0,0,0,.139-.041.3.3,0,0,0,.079-.164l.565-4.148a.136.136,0,0,0-.022-.1A.113.113,0,0,0,191.1,22.714Z" transform="translate(-123.418 -14.722)" fill="#fff"/>
  <path id="패스_7" data-name="패스 7" d="M226.494,48.721l-.975-.631a.252.252,0,0,1-.085-.394l6.579-10.329,1.892,1.208a2.756,2.756,0,0,1,.893.807,1.457,1.457,0,0,1,.183.864,10.044,10.044,0,0,1-.315,1.545.284.284,0,0,0,.12.29.12.12,0,0,0,.095.022.249.249,0,0,0,.136-.12.565.565,0,0,0,.069-.142l.962-2.331h0L227.2,33.85l-1.719,1.864a.6.6,0,0,0-.1.126.233.233,0,0,0-.054.173.136.136,0,0,0,.057.076.287.287,0,0,0,.315-.016,10.277,10.277,0,0,1,1.262-.93,1.445,1.445,0,0,1,.861-.2,2.722,2.722,0,0,1,1.11.47l1.892,1.2-6.592,10.326a.249.249,0,0,1-.394.085l-.971-.631a.18.18,0,0,0-.148-.035.2.2,0,0,0-.117.091.193.193,0,0,0-.025.145.2.2,0,0,0,.082.12l3.611,2.312a.186.186,0,0,0,.1.028h.047a.2.2,0,0,0,.12-.082.193.193,0,0,0,.022-.145.18.18,0,0,0-.066-.117Z" transform="translate(-152.824 -23.254)" fill="#fff"/>
  <path id="패스_8" data-name="패스 8" d="M249.523,76.145a.28.28,0,0,1-.088-.205.284.284,0,0,1,.114-.2l9-7.885a.249.249,0,0,1,.4.025l.65.744a.186.186,0,0,0,.132.06.174.174,0,0,0,.139-.044.189.189,0,0,0,.063-.129.183.183,0,0,0-.047-.139l-2.6-2.968a.177.177,0,0,0-.129-.063.186.186,0,0,0-.158.315l.65.741a.287.287,0,0,1,.088.208.281.281,0,0,1-.114.192l-9,7.895a.246.246,0,0,1-.4-.025l-.65-.741a.2.2,0,0,0-.129-.076h0a.205.205,0,0,0-.2.189.183.183,0,0,0,.047.139l2.6,2.965a.177.177,0,0,0,.129.063h.016a.177.177,0,0,0,.123-.047.189.189,0,0,0,.063-.132.186.186,0,0,0-.044-.136Z" transform="translate(-169.761 -44.879)" fill="#fff"/>
  <path id="패스_9" data-name="패스 9" d="M273.039,111.392a8.516,8.516,0,0,0,3.293-.716,8.349,8.349,0,0,0,3.009-2.075,5.955,5.955,0,0,0,1.454-2.867,5.579,5.579,0,0,0-2.35-5.564,6.015,6.015,0,0,0-3.085-.962,8.923,8.923,0,0,0-6.6,2.788,5.992,5.992,0,0,0-1.451,2.87,5.582,5.582,0,0,0,2.369,5.567,5.964,5.964,0,0,0,3.069.946Zm-3.356-1.814a3.4,3.4,0,0,1-1.747-4.132,5.526,5.526,0,0,1,1.577-2.287,10.9,10.9,0,0,1,6.2-2.621h.4a5.3,5.3,0,0,1,2.325.486,3.4,3.4,0,0,1,1.747,4.132,5.419,5.419,0,0,1-1.577,2.287,11.039,11.039,0,0,1-6.2,2.621A5.406,5.406,0,0,1,269.683,109.579Z" transform="translate(-183.554 -68.137)" fill="#fff"/>
  <path id="패스_10" data-name="패스 10" d="M290.989,150.939a.192.192,0,0,0-.132-.06h0a.174.174,0,0,0-.189.189l-.019.984a.315.315,0,0,1-.076.214.28.28,0,0,1-.2.066h0l-11.966-.252a.315.315,0,0,1-.214-.076.3.3,0,0,1-.063-.218l.019-.984a.17.17,0,0,0-.186-.2h0a.193.193,0,0,0-.133.054.186.186,0,0,0-.06.132l-.073,3.435a.205.205,0,0,0,.054.136.183.183,0,0,0,.132.057h0a.177.177,0,0,0,.129-.054.18.18,0,0,0,.06-.132l.028-1.325a.252.252,0,0,1,.29-.281l10.765.227-11.6,8.2h0v.543l12.632.265a.252.252,0,0,1,.278.29l-.019.987a.173.173,0,0,0,.054.136.2.2,0,0,0,.133.06h0a.193.193,0,0,0,.132-.054.2.2,0,0,0,.06-.136l.073-3.432a.189.189,0,0,0-.057-.136.18.18,0,0,0-.132-.06h0a.183.183,0,0,0-.136.047.18.18,0,0,0-.05.139l-.028,1.328a.293.293,0,0,1-.076.211.278.278,0,0,1-.218.066l-10.216-.214,11.039-7.6h0l.05-2.425A.176.176,0,0,0,290.989,150.939Z" transform="translate(-190.617 -103.443)" fill="#fff"/>
  <path id="패스_11" data-name="패스 11" d="M.806,59.809a53.309,53.309,0,1,1,105.923.016h.464A53.772,53.772,0,0,0,53.76,0,53.757,53.757,0,0,0,.342,59.809Z" fill="#fff"/>
</svg>
